<mxfile host="app.diagrams.net" modified="2023-10-15T00:07:23.585Z" agent="Mozilla/5.0 (Windows NT 10.0; Win64; x64) AppleWebKit/537.36 (KHTML, like Gecko) Chrome/118.0.0.0 Safari/537.36" version="22.0.4" etag="irouoj6PqdgY1nzkVGig" type="github">
  <diagram name="Page-1" id="S-C857VcM0Ie_dkS4rne">
    <mxGraphModel>
      <root>
        <mxCell id="0" />
        <mxCell id="1" parent="0" />
      </root>
    </mxGraphModel>
  </diagram>
</mxfile>
